<?xml version="1.0" encoding="UTF-8"?>
<svg id="Layer_1" xmlns="http://www.w3.org/2000/svg" version="1.1" viewBox="0 0 240.5 176.9">
  <!-- Generator: Adobe Illustrator 30.4.0, SVG Export Plug-In . SVG Version: 2.1.4 Build 226)  -->
  <defs>
    <style>
      .st0 {
        fill: none;
        stroke: #231f20;
        stroke-linecap: round;
        stroke-linejoin: round;
        stroke-width: 3px;
      }
    </style>
  </defs>
  <path class="st0" d="M7.4,129.7c10.2-19.7,15.6-41.9,15.6-64.1"/>
  <path class="st0" d="M30.8,127.2c5.3-14.4,9.1-29.4,11.2-44.6.9,13.4,3.6,26.7,8,39.4,2.8-4.1,4.2-9,5.5-13.8,4.3-15.9,8.7-31.8,13-47.6"/>
  <path class="st0" d="M109.9,66.6c-7.1-2.4-15.4-.8-21.2,4.1-5.7,4.9-8.7,12.8-7.5,20.2.7,4.6,2.9,8.8,4.5,13.2,5,13.3,4.5,29.4-4.7,40.2-3.4,4-8,7.1-13.1,8.1-5.1,1-10.8-.2-14.6-3.8"/>
  <path class="st0" d="M102.4,7.4c28.2,49.1,43.7,105.5,44.5,162.2"/>
  <path class="st0" d="M145.7,63.9c7.7-11.7,14.9-23.8,21.7-36.1"/>
  <path class="st0" d="M136,69.2c5.3-1.8,10.7-3.6,16.3-4s11.5.7,15.9,4.2c5.1,4.1,7.3,10.7,10.7,16.4,3.2,5.4,7.4,10.1,11.7,14.7"/>
  <path class="st0" d="M189,54.2c-.8,6.7-.5,13.6.7,20.2"/>
  <path class="st0" d="M199.7,67.6c.4-3.3,1.9-14.9,8.1-8.3,2.3,2.4,4.7,4.9,7.5,6.8-3.7-20.5-5.4-41.4-5.1-62.2"/>
  <path class="st0" d="M221.6,36.6c-.7,2.8.6,5.9,3,7.4,2.5,1.5,5.9,1.1,8-.8,1.6-1.5,2.4-4,1.5-6.1-.5-1.1-1.4-2-2.3-2.8-1.4-1.3-3.9-3.3-9,.2"/>
</svg>